<svg width="78" height="30" viewBox="0 0 78 30" fill="none" xmlns="http://www.w3.org/2000/svg">
<g clip-path="url(#clip0_32472_144031)">
<path d="M26.9775 10.8897C26.0625 10.3647 24.99 10.1022 23.76 10.1022C22.53 10.1022 21.48 10.3572 20.565 10.8672C19.65 11.3772 18.9525 12.101 18.4725 13.0385C17.9925 13.976 17.7525 15.0522 17.7525 16.2672C17.7525 17.4822 17.9925 18.5772 18.4725 19.5072C18.9525 20.4372 19.65 21.161 20.565 21.6785C21.48 22.196 22.5525 22.4547 23.7825 22.4547C25.0125 22.4547 26.0775 22.196 26.9775 21.6785C27.8775 21.161 28.5712 20.441 29.0587 19.5185C29.5462 18.596 29.79 17.5122 29.79 16.2672C29.79 15.0222 29.55 13.9835 29.07 13.061C28.59 12.1385 27.8925 11.4147 26.9775 10.8897ZM25.9762 18.191C25.7887 18.7085 25.5075 19.1097 25.1325 19.3947C24.7575 19.6797 24.3075 19.8222 23.7825 19.8222C23.2575 19.8222 22.8075 19.6797 22.4325 19.3947C22.0575 19.1097 21.7725 18.7047 21.5775 18.1797C21.3825 17.6547 21.285 17.0247 21.285 16.2897C21.285 15.5547 21.3825 14.876 21.5775 14.3435C21.7725 13.811 22.0575 13.406 22.4325 13.1285C22.8075 12.851 23.25 12.7122 23.76 12.7122C24.33 12.7122 24.7987 12.8622 25.1662 13.1622C25.5337 13.4622 25.8075 13.8785 25.9875 14.411C26.1675 14.9435 26.2575 15.5697 26.2575 16.2897C26.2575 17.0097 26.1637 17.6735 25.9762 18.191ZM12.7575 22.1397H16.2675V10.3947H12.7575V22.1397ZM15.5812 5.46723C15.2737 5.30223 14.925 5.21973 14.535 5.21973C14.115 5.21973 13.7512 5.30223 13.4437 5.46723C13.1362 5.63223 12.8962 5.84973 12.7237 6.11973C12.5512 6.38973 12.465 6.71223 12.465 7.08723C12.465 7.46223 12.5512 7.78848 12.7237 8.06598C12.8962 8.34348 13.1325 8.56848 13.4325 8.74098C13.7325 8.91348 14.0925 8.99973 14.5125 8.99973C14.9325 8.99973 15.2775 8.91723 15.5925 8.75223C15.9075 8.58723 16.1437 8.36223 16.3012 8.07723C16.4587 7.79223 16.5375 7.46973 16.5375 7.10973C16.5375 6.74973 16.455 6.40848 16.29 6.13098C16.125 5.85348 15.8887 5.63223 15.5812 5.46723ZM6.9075 17.0097C6.9075 17.5647 6.85875 18.0147 6.76125 18.3597C6.66375 18.7047 6.495 18.9672 6.255 19.1472C6.015 19.3272 5.6775 19.4172 5.2425 19.4172C4.6275 19.4172 4.18125 19.2372 3.90375 18.8772C3.62625 18.5172 3.4875 17.9397 3.4875 17.1447H0V17.4822C0 18.5322 0.19875 19.4322 0.59625 20.1822C0.99375 20.9322 1.58625 21.506 2.37375 21.9035C3.16125 22.301 4.1325 22.4997 5.2875 22.4997C6.5475 22.4997 7.5825 22.2935 8.3925 21.881C9.2025 21.4685 9.8025 20.8535 10.1925 20.036C10.5825 19.2185 10.7775 18.2097 10.7775 17.0097V6.59223H6.9075V17.0097ZM76.6987 19.5297C76.3087 19.5297 75.9975 19.466 75.765 19.3385C75.5325 19.211 75.3675 19.0085 75.27 18.731C75.1725 18.4535 75.1237 18.0822 75.1237 17.6172V12.9372H77.9362V10.4622H75.1237V6.92973H71.5912V18.0897C71.5912 19.1097 71.76 19.931 72.0975 20.5535C72.435 21.176 72.9037 21.626 73.5037 21.9035C74.1037 22.181 74.8612 22.3197 75.7762 22.3197C76.6912 22.3197 77.3812 22.2447 77.9812 22.0947V19.4172C77.5912 19.4922 77.1637 19.5297 76.6987 19.5297ZM67.6875 10.6985C67.125 11.096 66.7162 11.6622 66.4612 12.3972H66.3487L66.2812 10.3947H62.9962V22.1397H66.4837V16.8522C66.4837 16.1022 66.5962 15.4572 66.8212 14.9172C67.0462 14.3772 67.3875 13.9572 67.845 13.6572C68.3025 13.3572 68.8912 13.2072 69.6112 13.2072C69.8362 13.2072 70.035 13.2185 70.2075 13.241C70.38 13.2635 70.5262 13.2972 70.6462 13.3422V10.2147C70.3762 10.1397 70.0462 10.1022 69.6562 10.1022C68.9062 10.1022 68.25 10.301 67.6875 10.6985ZM40.0112 16.8972H39.9662L36.6587 6.59223H31.2812V22.1397H34.8812V11.1597H34.9712L38.4812 22.1397H41.4512L44.9387 11.1372H45.0512V22.1397H48.6287V6.59223H43.2512L40.0112 16.8972ZM58.9812 10.586C58.2087 10.2485 57.2225 10.0797 56.0225 10.0797C54.8225 10.0797 53.9112 10.211 53.1537 10.4735C52.3962 10.736 51.8112 11.126 51.3987 11.6435C50.9862 12.161 50.72 12.7872 50.6 13.5222H53.9525C54.0425 13.1322 54.2412 12.8322 54.5487 12.6222C54.8562 12.4122 55.3025 12.3072 55.8875 12.3072C56.3675 12.3072 56.75 12.386 57.035 12.5435C57.32 12.701 57.5225 12.9372 57.6425 13.2522C57.7625 13.5672 57.8225 13.9647 57.8225 14.4447V14.9847H55.9325C54.6875 14.9847 53.6337 15.1235 52.7712 15.401C51.9087 15.6785 51.2525 16.091 50.8025 16.6385C50.3525 17.186 50.1275 17.8947 50.1275 18.7647C50.1275 19.5297 50.2925 20.1897 50.6225 20.7447C50.9525 21.2997 51.4212 21.7235 52.0287 22.016C52.6362 22.3085 53.3525 22.4547 54.1775 22.4547C54.7925 22.4547 55.3437 22.376 55.8312 22.2185C56.3187 22.061 56.7162 21.8547 57.0237 21.5997C57.3312 21.3447 57.5975 21.0447 57.8225 20.6997H57.935L58.0925 22.1397H61.22V14.7372C61.22 13.6872 61.04 12.8172 60.68 12.1272C60.32 11.4372 59.7537 10.9235 58.9812 10.586ZM57.8225 17.6622C57.8225 18.1722 57.7175 18.6147 57.5075 18.9897C57.2975 19.3647 57.0237 19.646 56.6862 19.8335C56.3487 20.021 55.9475 20.1147 55.4825 20.1147C55.1225 20.1147 54.815 20.0547 54.56 19.9347C54.305 19.8147 54.0987 19.6385 53.9412 19.406C53.7837 19.1735 53.705 18.8772 53.705 18.5172C53.705 18.0972 53.8175 17.7635 54.0425 17.516C54.2675 17.2685 54.59 17.0885 55.01 16.976C55.43 16.8635 55.9325 16.8072 56.5175 16.8072H57.8225V17.6622Z" fill="white"/>
</g>
<defs>
<clipPath id="clip0_32472_144031">
<rect width="77.975" height="30" fill="white"/>
</clipPath>
</defs>
</svg>
