<svg width="10" height="12" viewBox="0 0 10 12" fill="none" xmlns="http://www.w3.org/2000/svg">
<path d="M5.78409 10.4996C5.83038 10.3872 5.90022 10.2861 5.98892 10.203C6.07761 10.1199 6.18309 10.0568 6.29824 10.018C6.41339 9.97909 6.53553 9.96538 6.65643 9.97774C6.77733 9.99009 6.89418 10.0282 6.99909 10.0896C7.14249 10.1743 7.30752 10.2153 7.47391 10.2076C7.6403 10.1998 7.8008 10.1436 7.9357 10.0459C8.07059 9.94821 8.17401 9.81321 8.23323 9.65753C8.29246 9.50184 8.30492 9.33225 8.26909 9.16958C8.24225 9.05093 8.24103 8.92793 8.26552 8.80878C8.29002 8.68962 8.33965 8.57707 8.41111 8.47863C8.48258 8.3802 8.57422 8.29814 8.67993 8.23795C8.78563 8.17775 8.90296 8.14081 9.02409 8.12958C9.19434 8.1203 9.35788 8.06004 9.49344 7.95662C9.629 7.85319 9.73032 7.71139 9.78424 7.54963C9.83816 7.38787 9.84219 7.21363 9.79579 7.04956C9.7494 6.88548 9.65473 6.73915 9.52409 6.62958C9.43352 6.54935 9.36102 6.45082 9.31136 6.3405C9.26171 6.23017 9.23603 6.11056 9.23603 5.98958C9.23603 5.86859 9.26171 5.74898 9.31136 5.63866C9.36102 5.52833 9.43352 5.4298 9.52409 5.34958C9.65473 5.24 9.7494 5.09367 9.79579 4.9296C9.84219 4.76552 9.83816 4.59128 9.78424 4.42953C9.73032 4.26777 9.629 4.12596 9.49344 4.02254C9.35788 3.91911 9.19434 3.85885 9.02409 3.84958C8.90296 3.83835 8.78563 3.8014 8.67993 3.74121C8.57422 3.68102 8.48258 3.59896 8.41111 3.50052C8.33965 3.40208 8.29002 3.28953 8.26552 3.17038C8.24103 3.05123 8.24225 2.92822 8.26909 2.80958C8.30003 2.64839 8.28392 2.4817 8.22269 2.32942C8.16146 2.17713 8.05769 2.04569 7.92378 1.95079C7.78986 1.85589 7.63146 1.80154 7.46749 1.79423C7.30352 1.78693 7.14091 1.82697 6.99909 1.90958C6.89418 1.97092 6.77733 2.00906 6.65643 2.02142C6.53553 2.03377 6.41339 2.02006 6.29824 1.9812C6.18309 1.94235 6.07761 1.87925 5.98892 1.79616C5.90022 1.71308 5.83038 1.61195 5.78409 1.49958C5.71793 1.34629 5.60834 1.21573 5.46884 1.124C5.32934 1.03228 5.16604 0.983398 4.99909 0.983398C4.83213 0.983398 4.66883 1.03228 4.52934 1.124C4.38984 1.21573 4.28025 1.34629 4.21409 1.49958C4.1678 1.61195 4.09795 1.71308 4.00926 1.79616C3.92056 1.87925 3.81508 1.94235 3.69993 1.9812C3.58478 2.02006 3.46264 2.03377 3.34174 2.02142C3.22084 2.00906 3.104 1.97092 2.99909 1.90958C2.85569 1.82483 2.69066 1.78381 2.52426 1.79156C2.35787 1.79932 2.19737 1.8555 2.06248 1.95322C1.92758 2.05094 1.82417 2.18594 1.76494 2.34162C1.70571 2.49731 1.69325 2.66691 1.72909 2.82958C1.75589 2.94634 1.75785 3.06743 1.73485 3.18501C1.71185 3.30258 1.66439 3.414 1.59556 3.51206C1.52674 3.61011 1.43807 3.69261 1.33532 3.7542C1.23256 3.81579 1.11801 3.8551 0.999086 3.86958C0.828829 3.87885 0.665297 3.93911 0.529735 4.04254C0.394174 4.14596 0.292852 4.28777 0.238932 4.44953C0.185012 4.61128 0.180988 4.78552 0.227382 4.9496C0.273776 5.11367 0.368444 5.26 0.499086 5.36958C0.589648 5.4498 0.662154 5.54833 0.71181 5.65866C0.761466 5.76898 0.787143 5.88859 0.787143 6.00958C0.787143 6.13056 0.761466 6.25017 0.71181 6.3605C0.662154 6.47082 0.589648 6.56935 0.499086 6.64958C0.368444 6.75915 0.273776 6.90548 0.227382 7.06956C0.180988 7.23363 0.185012 7.40787 0.238932 7.56963C0.292852 7.73139 0.394174 7.87319 0.529735 7.97662C0.665297 8.08004 0.828829 8.1403 0.999086 8.14958C1.12021 8.16081 1.23754 8.19775 1.34325 8.25795C1.44895 8.31814 1.5406 8.4002 1.61206 8.49863C1.68352 8.59707 1.73316 8.70962 1.75765 8.82878C1.78214 8.94793 1.78093 9.07093 1.75409 9.18958C1.72681 9.34732 1.74437 9.50955 1.80476 9.6578C1.86516 9.80605 1.96595 9.93437 2.09569 10.0282C2.22542 10.1219 2.37888 10.1774 2.53859 10.1883C2.6983 10.1991 2.85785 10.1649 2.99909 10.0896C3.10305 10.0278 3.219 9.98895 3.33918 9.97557C3.45936 9.96219 3.58102 9.97461 3.69602 10.012C3.81102 10.0494 3.91672 10.1109 4.00606 10.1924C4.0954 10.2739 4.16632 10.3735 4.21409 10.4846C4.27877 10.6385 4.38711 10.7701 4.52573 10.8632C4.66435 10.9563 4.82719 11.0067 4.99415 11.0083C5.16112 11.0099 5.32489 10.9626 5.46527 10.8722C5.60564 10.7818 5.71647 10.6522 5.78409 10.4996ZM3.62409 3.99958C3.7477 3.99958 3.86854 4.03623 3.97132 4.10491C4.0741 4.17358 4.15421 4.2712 4.20151 4.3854C4.24882 4.4996 4.26119 4.62527 4.23708 4.74651C4.21296 4.86775 4.15344 4.97911 4.06603 5.06652C3.97862 5.15393 3.86726 5.21345 3.74602 5.23757C3.62478 5.26168 3.49911 5.24931 3.38491 5.202C3.27071 5.1547 3.17309 5.07459 3.10442 4.97181C3.03574 4.86903 2.99909 4.74819 2.99909 4.62458C2.99909 4.45882 3.06493 4.29985 3.18214 4.18264C3.29935 4.06543 3.45833 3.99958 3.62409 3.99958ZM6.37409 7.99958C6.25047 7.99958 6.12964 7.96292 6.02685 7.89425C5.92407 7.82557 5.84397 7.72796 5.79666 7.61375C5.74936 7.49955 5.73698 7.37388 5.7611 7.25265C5.78521 7.13141 5.84474 7.02004 5.93214 6.93264C6.01955 6.84523 6.13092 6.7857 6.25215 6.76159C6.37339 6.73747 6.49906 6.74985 6.61326 6.79715C6.72747 6.84446 6.82508 6.92456 6.89375 7.02735C6.96243 7.13013 6.99909 7.25096 6.99909 7.37458C6.99909 7.54034 6.93324 7.69931 6.81603 7.81652C6.69882 7.93373 6.53985 7.99958 6.37409 7.99958ZM6.87409 4.85458L3.87409 7.85458C3.8276 7.90144 3.7723 7.93864 3.71137 7.96402C3.65045 7.98941 3.58509 8.00248 3.51909 8.00248C3.45308 8.00248 3.38773 7.98941 3.3268 7.96402C3.26587 7.93864 3.21057 7.90144 3.16409 7.85458C3.11722 7.8081 3.08003 7.7528 3.05464 7.69187C3.02926 7.63094 3.01619 7.56558 3.01619 7.49958C3.01619 7.43357 3.02926 7.36822 3.05464 7.30729C3.08003 7.24636 3.11722 7.19106 3.16409 7.14458L6.16409 4.14458C6.25824 4.05043 6.38594 3.99753 6.51909 3.99753C6.65224 3.99753 6.77993 4.05043 6.87409 4.14458C6.96824 4.23873 7.02113 4.36643 7.02113 4.49958C7.02113 4.63273 6.96824 4.76043 6.87409 4.85458Z" fill="#00B259"/>
</svg>
