<svg width="16" height="16" viewBox="0 0 16 16" fill="none" xmlns="http://www.w3.org/2000/svg">
<path d="M3.72659 8.12015L8.85992 1.70682C9.00694 1.5253 9.21358 1.40183 9.44309 1.35837C9.67259 1.31491 9.91007 1.35428 10.1133 1.46948C10.3165 1.58468 10.4722 1.76824 10.5528 1.98749C10.6333 2.20674 10.6335 2.44746 10.5533 2.66682L9.21992 6.32015H10.9999C11.247 6.32739 11.4873 6.40319 11.6938 6.53908C11.9003 6.67497 12.065 6.8656 12.1694 7.08968C12.2739 7.31376 12.3139 7.56247 12.2852 7.80801C12.2564 8.05355 12.16 8.28627 12.0066 8.48015L7.09326 14.3135C6.93916 14.4744 6.73514 14.5784 6.51441 14.6086C6.29367 14.6388 6.0692 14.5934 5.87755 14.4798C5.68589 14.3662 5.53832 14.1911 5.45886 13.983C5.3794 13.7748 5.37273 13.5459 5.43992 13.3335L6.61993 10.2668H4.75326C4.50676 10.2613 4.26661 10.1876 4.05949 10.0539C3.85238 9.92009 3.68641 9.73152 3.58003 9.50909C3.47365 9.28666 3.43103 9.03909 3.4569 8.7939C3.48278 8.5487 3.57613 8.31548 3.72659 8.12015Z" fill="#00B259"/>
</svg>